<?xml version="1.0" encoding="UTF-8"?>
<svg id="Layer_1" data-name="Layer 1" xmlns="http://www.w3.org/2000/svg" viewBox="0 0 512 512">
  <defs>
    <style>
      .cls-1 {
        fill: #5c1dd8;
      }

      .cls-1, .cls-2 {
        stroke-width: 0px;
      }

      .cls-2 {
        fill: #ece9e9;
      }
    </style>
  </defs>
  <path class="cls-2" d="M57.6,0h396.4c31.9,0,57.8,25.9,57.8,57.8v396.3c0,31.9-25.9,57.8-57.8,57.8H57.6c-31.9,0-57.8-25.9-57.8-57.8V57.8c0-31.9,25.9-57.8,57.8-57.8Z"/>
  <g>
    <path class="cls-1" d="M208.8,185.9h94.2v13.6h-34.2c-28.7,0-45,16.1-45,45v102.5h-15.1l.1-161.1h0Z"/>
    <path class="cls-1" d="M158.6,99.7c-25,0-41.7,16.7-41.7,41.7v229.3c0,25,16.7,41.7,41.7,41.7h38.9v16.6h-38.9c-35,0-58.3-23.3-58.3-58.3v-64.5c0-25-16.7-41.7-41.7-41.7h-19v-16.7h19.1c25,0,41.7-16.7,41.7-41.7v-64.7c0-35,23.3-58.3,58.3-58.3h38.9v16.7h-39v-.1Z"/>
    <path class="cls-1" d="M353.7,99.7h-39.2v-16.7h39.2c34.8,0,58,23.3,58,58.3v64.5c0,25,16.7,41.7,41.7,41.7h19.1v16.7h-19.1c-25,0-41.7,16.7-41.7,41.7v64.5c0,35-23.3,58.3-58,58.3h-39.2v-16.5h39.2c25,0,41.7-16.7,41.7-41.7v-229.1c0-25.1-16.7-41.7-41.7-41.7Z"/>
  </g>
</svg>